<svg width="436" height="436" viewBox="0 0 436 436" fill="none" xmlns="http://www.w3.org/2000/svg">
<path d="M212.73 401.73V430.26C212.73 436.708 222.73 436.708 222.73 430.26V401.73C222.73 395.28 212.73 395.28 212.73 401.73Z" fill="#47C2FF"/>
<path d="M122.22 374.82C117.184 382.976 112.147 391.133 107.111 399.29C103.713 404.793 112.365 409.811 115.746 404.337C120.782 396.181 125.819 388.024 130.855 379.867C134.255 374.357 125.605 369.347 122.225 374.817L122.22 374.82Z" fill="white"/>
<path d="M55.7989 304.89L31.0489 319.638C25.5159 322.935 30.5429 331.582 36.0959 328.273L60.8459 313.525C66.3789 310.225 61.3529 301.575 55.7989 304.885V304.89Z" fill="white"/>
<path d="M33.225 212.66H5.12996C-1.31904 212.66 -1.31904 222.66 5.12996 222.66H33.225C39.673 222.66 39.673 212.66 33.225 212.66Z" fill="#47C2FF"/>
<path d="M61.2069 121C52.8369 116.349 44.4669 111.699 36.0969 107.048C30.4549 103.913 25.4129 112.551 31.0499 115.683C39.4199 120.334 47.7899 124.984 56.1599 129.635C61.8009 132.765 66.8429 124.135 61.2069 121.005V121Z" fill="white"/>
<path d="M129.42 55.1918C124.863 47.1208 120.306 39.0508 115.749 30.9808C112.579 25.3668 103.939 30.4048 107.114 36.0278C111.671 44.0988 116.228 52.1688 120.785 60.2388C123.945 65.8528 132.585 60.8138 129.415 55.1918H129.42Z" fill="white"/>
<path d="M222.73 33.2239V5.06087C222.73 -1.38813 212.73 -1.38813 212.73 5.06087V33.2239C212.73 39.6719 222.73 39.6719 222.73 33.2239Z" fill="#47C2FF"/>
<path d="M314.85 61.0347C319.348 52.6987 323.846 44.3627 328.344 36.0267C331.406 30.3527 322.772 25.3037 319.709 30.9797C315.211 39.3157 310.713 47.6517 306.215 55.9877C303.165 61.6627 311.795 66.7107 314.855 61.0347H314.85Z" fill="white"/>
<path d="M379.66 130.43C387.91 125.513 396.16 120.597 404.41 115.681C409.942 112.384 404.917 103.737 399.363 107.046C391.113 111.963 382.863 116.879 374.613 121.795C369.083 125.095 374.103 133.745 379.663 130.435L379.66 130.43Z" fill="white"/>
<path d="M401.73 222.66H430.328C436.776 222.66 436.776 212.66 430.328 212.66H401.73C395.28 212.66 395.28 222.66 401.73 222.66Z" fill="#47C2FF"/>
<path d="M374.97 314.35C383.1 318.994 391.23 323.636 399.36 328.28C404.968 331.483 410.005 322.842 404.407 319.645C396.277 315.001 388.147 310.359 380.017 305.715C374.407 302.515 369.367 311.155 374.967 314.355L374.97 314.35Z" fill="white"/>
<path d="M305.5 379.05C310.237 387.48 314.974 395.909 319.711 404.338C322.87 409.959 331.509 404.919 328.346 399.291C323.609 390.861 318.872 382.433 314.135 374.003C310.985 368.383 302.345 373.423 305.505 379.053L305.5 379.05Z" fill="white"/>
</svg>
